<svg version="1.2" xmlns="http://www.w3.org/2000/svg" viewBox="0 0 1280 760" width="1280" height="760">
	<style>
		.s0 { fill: #0a1626 }
		.s1 { opacity: .98;fill: #9f795b;stroke: #c8a46a;stroke-miterlimit:100 }
		.s2 { fill: #ac8951 }
		.s3 { fill: #ac8951;stroke: #c8a46a;stroke-miterlimit:100 }
	</style>
	<g id="Layer 1">
		<path class="s0" d="m246.05 253.5c15.51-0.1 31.92-1.69 44.15 9.97 14.83 14.12 14.25 41.06-0.43 55.1-9.45 9.05-19.45 9.81-31.7 10.07-12.26 0.25-22.33-0.55-35 0.3 3.03-1.27 7.73-2.48 10.99-3.42 0.61-8.6 0.96-60.09-0.49-66.97-1.77-2.8-6.67-3.89-9.98-5 7.29 0.3 15.12 0.05 22.46-0.05zm10.68 72.79c8.57 0.06 16.93-1.21 23.62-7.19 13.83-12.36 12.96-41.49 0.45-54.45-9.68-10.05-22.3-8.97-35.07-8.84-2.36 3.49-0.83 58.74-0.58 67.16 0.1 3.84 8.84 3.35 11.58 3.32z"/>
		<path class="s0" d="m246.05 253.5c15.51-0.1 31.92-1.69 44.15 9.97 14.83 14.12 14.25 41.06-0.43 55.1-9.45 9.05-19.45 9.81-31.7 10.07l-1.34-2.35c8.57 0.06 16.93-1.21 23.62-7.19 13.83-12.36 12.96-41.49 0.45-54.45-9.68-10.05-22.3-8.97-35.07-8.84z"/>
		<path class="s0" d="m853.78 253.74c6.18-0.66 12.93-0.03 19.2-0.45 18.39-1.21 49.73 1.05 38 28.12-2.7 6.24-9.34 9.2-15.58 11.18 7.46 10.37 14.25 23.84 23.26 32.4 1.28 1.22 6.59 3.09 8.49 3.78-14.04 0.4-18.16 2.65-26.58-9.22-4.24-7.46-10.46-19.08-15.97-25.04-4.62-0.78-6.69-0.91-11.28-1.06-0.12 8.83-1.24 20.9 0.91 29.41 0.91 3.59 4.22 3.54 6.86 5.15l-0.5 0.65q-12.33-0.16-24.66-0.14l-0.27-0.94c1.82-0.66 6.33-2.1 6.43-3.83 0.98-21.12 1.63-43.68-0.17-64.76-0.18-2.04-6.35-4.42-8.14-5.25zm19.57 36.68c10.33 0.19 16.5 1.07 25.2-4.98 14.71-22.03-5.36-30.56-25.42-29.05 0.32 11.31-0.25 22.94 0.22 34.03z"/>
		<path class="s1" d="m226.32 385.52c11.67-1.2 38.33-0.42 51.3-0.42l101.32 0.08 330.51-0.11 239.13 0.01 58.17 0.07c3.93 0 20.15-0.32 22.88 0.31l0.16 1.22q-1.71 0.19-3.42 0.3c-11.83 0.86-26.86 0.52-38.89 0.49l-53.7 0.04-181.32 0.05-509.5-0.19c-4.14-0.05-14.02 0.44-16.64-1.85z"/>
		<path class="s0" d="m534.01 253.6l33.94-0.13c-3.71 0.99-7.93 1.7-10.89 3.92-2.71 5.6-1.52 27.08-1.88 35.15 9.18-8.49 29.52-24.1 35.33-34.11l0.54-0.93-10.38-4.17q15.16 0.28 30.33 0.13c-2.17 0.59-8.58 2.35-10.11 3.4-11.38 7.71-21.58 19.24-32.36 28.41 13.15 12.14 21.94 26.76 34.93 38.67 3.7 3.4 8.16 3.57 12.66 5.06-7.02-0.53-26.53-0.09-30.26-0.78 1.6-3.25 3.59-0.36 2.96-4.22-4.02-4.98-24-31.24-27.78-31.76-1.86 0.63-3.46 1.18-5.3 1.9-0.86 4.7-1.19 24.75 0.66 29.89 1.1 3.03 5.83 2.78 9.17 4.2l1.39 0.62c-11.08-0.9-22.92-0.29-34.13-0.13 2.39-0.58 11.85-2.24 11.98-5.09 0.36-9.3 2.17-60.91-0.99-66.25-3.2-2.39-6.02-2.48-9.81-3.78z"/>
		<path class="s0" d="m691.02 253.79c6.3-0.74 23.32-0.44 30.71-0.6-3.26 1.49-7.6 2.99-11.01 4.3-1.29 15.6-0.74 34.84 0.2 50.53 1 16.56 20.12 22.82 33.55 16.11 12.55-6.28 12.22-23.8 11.97-35.82-0.17-9.36 0.86-19.5-1.03-28.68-0.61-3.09-5.71-4.07-8.26-5.25l0.11-0.25c2.07-0.91 4.59-0.63 6.94-0.61 6.18 0 12.46-0.16 18.63-0.23-4.76 1.45-12.24 2.66-12.94 8.66-1.94 16.6 1.88 35.13-1.8 51.43-4 17.64-28 19.87-42.2 14.87-27.16-9.81-10.3-49.61-17.03-70.08-0.68-2.05-5.77-3.6-7.84-4.38z"/>
		<path class="s0" d="m383.85 253.38l67.25 0.06q-0.03 11.24-0.22 22.47c-7.03-19.47-7.25-19.33-28.49-19.68 0.29 20.31-0.18 42.06-0.18 62.52 0.94 9.81 5.46 7.81 13.85 9.99q-18.48-0.16-36.94-0.08c5.02-1.48 7.86-0.55 11.71-3.95 2.48-4.91 1.39-59.03 1.27-68.79-19.65 0.25-22.03 0.95-28.13 19.85-0.31-6.88 0-15.23-0.12-22.39z"/>
		<path class="s0" d="m1048.64 253.63q8.76-0.38 17.53-0.13c-0.03 6.88 0.11 14.81-0.41 21.58-6.3-18.28-8.65-19.3-27.78-19.15q-0.06 27.16-0.11 54.33c0 4.53-0.55 11.52 1.87 15.18 4.13 2.07 3.76 0.84 6.8 2.1l-0.71 0.96c-8.71 0.05-16.31-0.52-25.07 0.17l-0.74-0.73c1.91-1.52 2.57-1.29 5.19-1.82 1.08-1.13 2.35-2.49 2.41-4.17 0.57-13.88 0.1-27.86 0.24-41.76 0.06-7.8-0.33-15.86 0.22-23.63 2.18-3.2 14.26-1.68 20.56-2.93z"/>
		<path id="A E S T H E T I C  D E N T I S T" class="s2" aria-label="A E S T H E T I C  D E N T I S T R Y"  d="m41 484.3h-24.3l0.9-1.8h22.8zm19.2 22.7q0.4 0 0.3 0.6 0.1 0.5-0.3 0.5-2.4 0-5-0.2-2.6-0.2-5-0.2-2.7 0-4.8 0.2-1.9 0.2-4.3 0.2-0.3 0-0.3-0.5 0-0.6 0.3-0.6 4.6 0 5.6-1.3 1.2-1.3-0.5-5l-19.1-40.5 2.1-2.6-16.7 39.5q-2.2 5.3-0.4 7.6 2 2.3 7.7 2.3 0.4 0 0.4 0.6 0 0.5-0.4 0.5-2.6 0-4.8-0.2-2.1-0.2-5.4-0.2-3.1 0-5 0.2-1.9 0.2-4.5 0.2-0.4 0-0.4-0.5 0-0.6 0.4-0.6 2.3 0 3.9-0.8 1.8-0.9 3.3-3.2 1.6-2.4 3.4-6.6l18.2-42.9q0.1-0.3 0.6-0.2 0.4-0.1 0.5 0.2l20.3 42.8q2 4.2 3.5 6.6 1.6 2.4 3.1 3.3 1.5 0.8 3.3 0.8zm60.6 1.1h-36.1q-0.2 0-0.2-0.5 0-0.6 0.2-0.6 3.2 0 4.7-0.4 1.6-0.4 2.1-1.7 0.6-1.3 0.6-3.8v-39.9q0-2.5-0.6-3.7-0.5-1.3-2.1-1.7-1.5-0.6-4.7-0.6-0.2 0-0.2-0.5 0-0.5 0.2-0.5h34.6q0.8 0 0.8 0.8l0.2 10.6q0 0.3-0.5 0.3-0.4 0-0.5-0.3-0.2-4.6-2.8-7-2.5-2.6-6.6-2.6h-5.2q-2.9 0-4.5 0.5-1.4 0.4-2.1 1.7-0.4 1.1-0.4 3.4v39.2q0 2.2 0.4 3.4 0.6 1.2 2 1.6 1.5 0.5 4.4 0.5h6.9q4.1 0 6.8-3 2.9-2.9 3.8-8 0-0.3 0.5-0.2 0.5 0 0.5 0.3-0.4 2.3-0.6 5.5-0.2 3.2-0.2 5.9 0 1.3-1.4 1.3zm-4.8-20.1q0-3.8-1.9-5.3-1.8-1.8-6.1-1.8h-13v-1.8h13.2q4.2 0 5.9-1.4 1.8-1.4 1.8-4.6 0-0.2 0.5-0.2 0.5 0 0.5 0.2 0 2.5-0.1 4 0 1.4 0 3 0 1.9 0.1 3.8 0.1 1.9 0.1 4.1 0 0.2-0.5 0.3-0.5-0.1-0.5-0.3zm43.5-23.7q0 3.5 1.7 6.1 1.8 2.5 4.6 4.4 2.8 1.9 5.9 3.8 3.2 1.8 6.1 4 2.9 2 4.9 4.9 1.9 2.8 1.9 6.9 0 4.1-2.1 7.5-2 3.3-5.9 5.3-3.9 1.9-9.7 1.9-2 0-4.1-0.2-2-0.4-4.1-1.1-1.9-0.7-3.9-1.7-0.4-0.3-0.7-0.6-0.1-0.4-0.1-1.1l-1.1-11.7q-0.1-0.4 0.3-0.4 0.6-0.1 0.6 0.3 0.6 2.6 1.6 5.3 1.2 2.6 3 4.8 1.9 2.2 4.4 3.7 2.6 1.3 6.1 1.3 2.5 0 4.8-0.9 2.4-0.9 3.9-3 1.5-2.3 1.5-6 0-4.2-1.9-7-1.7-2.8-4.6-4.9-2.8-2-6-3.9-3-1.8-5.9-3.8-2.8-2-4.6-4.7-1.7-2.8-1.7-6.8 0-4.5 2.3-7.5 2.4-3 6.1-4.5 3.7-1.4 7.6-1.4 2.5 0 5 0.5 2.6 0.4 5.1 1.5 0.7 0.3 1 0.7 0.3 0.4 0.3 0.8l0.6 9.9q0 0.3-0.5 0.4-0.4-0.1-0.5-0.4-0.2-1.7-1.1-3.8-0.7-2.1-2.2-3.9-1.4-2-3.6-3.2-2.3-1.3-5.4-1.3-3.4 0-5.6 1.5-2 1.4-3.1 3.6-0.9 2.2-0.9 4.7zm66.7-8.5q-5.4 0-8.1 2.8-2.7 2.7-3.8 9.3-0.1 0.2-0.6 0.2-0.5 0-0.5-0.2 0.2-1.1 0.4-3.1 0.2-2 0.4-4.3 0.2-2.4 0.3-4.6 0.1-2.2 0.1-3.6 0-0.4 0.5-0.4 0.6 0 0.6 0.4 0 0.9 0.8 1.3 0.8 0.4 1.9 0.5 1.1 0.1 1.9 0.1 7.4 0.3 17.3 0.3 6.1 0 9.7-0.1 3.6-0.2 7-0.2 2.8 0 4.4-0.3 1.6-0.5 2.1-1.8 0.1-0.4 0.4-0.4 0.5 0 0.5 0.4-0.1 1.3-0.3 3.5-0.1 2.2-0.3 4.6 0 2.5-0.1 4.6-0.1 2-0.1 3.1 0 0.2-0.5 0.2-0.5 0-0.5-0.2-0.2-6.7-2.8-9.4-2.4-2.7-8.2-2.7-3.6 0-5.4 0.4-1.8 0.3-2.4 1.5-0.6 1.1-0.6 3.7v39.7q0 2.5 0.6 3.8 0.6 1.3 2.4 1.7 1.8 0.4 5.4 0.4 0.2 0 0.2 0.6 0 0.5-0.2 0.5-2.2 0-5.1-0.1-2.8-0.1-6.2-0.1-3.2 0-6 0.1-2.8 0.1-5.2 0.1-0.2 0-0.3-0.5 0.1-0.6 0.3-0.6 3.6 0 5.3-0.4 1.9-0.4 2.5-1.7 0.7-1.3 0.7-3.8v-39.9q0-2.6-0.7-3.7-0.5-1.2-2.4-1.4-1.8-0.3-5.4-0.3zm107 45.3v-39.7q0-2.5-0.5-3.8-0.5-1.3-2.2-1.8-1.5-0.6-4.9-0.6-0.2 0-0.2-0.5 0-0.5 0.2-0.5 2.1 0 4.7 0.2 2.6 0.1 5.7 0.1 2.9 0 5.5-0.1 2.7-0.2 4.8-0.2 0.2 0 0.2 0.5 0 0.5-0.2 0.5-3.2 0-4.9 0.6-1.6 0.4-2.2 1.7-0.5 1.2-0.5 3.7v39.9q0 2.5 0.5 3.8 0.6 1.3 2.2 1.7 1.7 0.4 4.9 0.4 0.2 0 0.2 0.6 0 0.5-0.2 0.5-2.1 0-4.8-0.1-2.6-0.1-5.5-0.1-3.1 0-5.7 0.1-2.6 0.1-4.7 0.1-0.2 0-0.2-0.5 0-0.6 0.2-0.6 3.4 0 4.9-0.4 1.7-0.4 2.2-1.7 0.5-1.3 0.5-3.8zm2.4-20.2h-38.5v-1.8h38.5zm-41 20.2v-39.9q0-2.5-0.6-3.7-0.5-1.3-2.2-1.7-1.5-0.5-4.7-0.5-0.2 0-0.3-0.6 0.1-0.5 0.3-0.5 2.1 0 4.7 0.2 2.6 0.1 5.4 0.1 3.2 0 5.8-0.1 2.6-0.2 4.7-0.2 0.2 0 0.2 0.5 0 0.6-0.2 0.6-3.2 0-4.9 0.5-1.6 0.5-2.2 1.8-0.5 1.3-0.5 3.8v39.7q0 2.5 0.5 3.8 0.6 1.3 2.2 1.7 1.7 0.4 4.9 0.4 0.2 0 0.2 0.6 0 0.5-0.2 0.5-2.2 0-4.7-0.1-2.6-0.1-5.8-0.1-2.8 0-5.5 0.1-2.6 0.1-4.7 0.1-0.2 0-0.2-0.5 0-0.6 0.2-0.6 3.2 0 4.8-0.4 1.7-0.4 2.2-1.7 0.6-1.3 0.6-3.8zm115.2 7h-36.1q-0.2 0-0.2-0.5 0-0.6 0.2-0.6 3.2 0 4.7-0.4 1.6-0.4 2.1-1.7 0.6-1.3 0.6-3.8v-39.9q0-2.5-0.6-3.7-0.5-1.3-2.1-1.7-1.5-0.5-4.7-0.5-0.2 0-0.2-0.6 0-0.5 0.2-0.5h34.6q0.8 0 0.8 0.8l0.2 10.6q0 0.3-0.5 0.3-0.4 0-0.5-0.3-0.2-4.6-2.8-7-2.5-2.6-6.6-2.6h-5.2q-2.9 0-4.5 0.5-1.4 0.4-2.1 1.7-0.4 1.1-0.4 3.4v39.2q0 2.2 0.4 3.4 0.6 1.2 2 1.6 1.5 0.5 4.4 0.5h6.9q4.1 0 6.8-3 2.9-2.9 3.8-8 0-0.3 0.5-0.1 0.5-0.1 0.5 0.2-0.4 2.3-0.6 5.5-0.2 3.2-0.2 5.9 0 1.3-1.4 1.3zm-4.8-20.1q0-3.8-1.9-5.3-1.8-1.8-6.1-1.8h-13v-1.8h13.2q4.2 0 5.9-1.4 1.8-1.4 1.8-4.6 0-0.2 0.5-0.2 0.5 0 0.5 0.2 0 2.5-0.1 4 0 1.4 0 3 0 1.9 0.1 3.9 0.1 1.8 0.1 4 0 0.2-0.5 0.3-0.5-0.1-0.5-0.3zm47.2-32.2q-5.4 0-8.1 2.8-2.7 2.7-3.8 9.3-0.1 0.2-0.6 0.2-0.5 0-0.5-0.2 0.2-1.1 0.4-3.1 0.2-2 0.4-4.3 0.2-2.4 0.3-4.6 0.1-2.2 0.1-3.6 0-0.4 0.5-0.4 0.6 0 0.6 0.4 0 0.9 0.8 1.3 0.8 0.4 1.9 0.5 1.1 0.1 1.9 0.1 7.4 0.3 17.3 0.3 6.1 0 9.7-0.1 3.6-0.2 7-0.2 2.8 0 4.4-0.3 1.6-0.5 2.1-1.8 0.1-0.4 0.4-0.4 0.5 0 0.5 0.4-0.1 1.3-0.3 3.5-0.1 2.2-0.3 4.7 0 2.4-0.1 4.5-0.1 2-0.1 3.1 0 0.2-0.5 0.2-0.5 0-0.5-0.2-0.2-6.7-2.8-9.4-2.4-2.7-8.2-2.7-3.6 0-5.4 0.4-1.8 0.3-2.4 1.5-0.6 1.1-0.6 3.7v39.7q0 2.5 0.6 3.8 0.6 1.3 2.4 1.7 1.8 0.4 5.4 0.4 0.2 0 0.2 0.6 0 0.5-0.2 0.5-2.2 0-5.1-0.1-2.8-0.1-6.2-0.1-3.2 0-6 0.1-2.8 0.1-5.2 0.1-0.2 0-0.3-0.5 0.1-0.6 0.3-0.6 3.6 0 5.3-0.4 1.9-0.4 2.5-1.7 0.7-1.3 0.7-3.8v-39.9q0-2.6-0.7-3.7-0.5-1.2-2.4-1.4-1.8-0.3-5.4-0.3zm75.9 5.6v39.7q0 2.5 0.5 3.8 0.5 1.3 2.1 1.7 1.7 0.4 4.8 0.4 0.2 0 0.1 0.6 0.1 0.5-0.1 0.5-2.1 0-4.7-0.1-2.5-0.1-5.6-0.1-2.9 0-5.5 0.1-2.6 0.1-4.7 0.1-0.2 0-0.3-0.5 0.1-0.6 0.3-0.6 3.2 0 4.8-0.4 1.6-0.4 2.1-1.7 0.6-1.3 0.6-3.8v-39.9q0-2.5-0.6-3.7-0.5-1.3-2.1-1.7-1.6-0.5-4.8-0.5-0.2 0-0.3-0.6 0.1-0.5 0.3-0.5 2.1 0 4.7 0.2 2.6 0.1 5.5 0.1 3.1 0 5.6-0.1 2.7-0.2 4.7-0.2 0.2 0 0.1 0.5 0.1 0.6-0.1 0.6-3.1 0-4.8 0.5-1.5 0.5-2 1.8-0.6 1.3-0.6 3.8zm67.3-8.1q3.6 0 6.4 0.3 2.8 0.3 5.3 1.1 2.4 0.7 4.9 2 0.6 0.3 0.7 0.6 0.1 0.2 0.2 1.3l1.1 10.3q0 0.2-0.5 0.3-0.4 0.1-0.6-0.2-2-7.2-6.4-10.7-4.3-3.7-11.4-3.7-7.3 0-12.8 3.2-5.4 3.2-8.5 9.1-3 5.7-3 13.7 0 5.7 1.9 10.7 2 4.9 5.4 8.7 3.4 3.7 7.8 5.8 4.5 2.1 9.6 2.1 7.1 0 11.5-3.5 4.4-3.6 6.6-10.6 0.1-0.2 0.5-0.1 0.5 0.1 0.5 0.2l-0.8 9.5q-0.1 1-0.3 1.3-0.1 0.3-0.7 0.6-4.5 2.2-8.5 3.1-3.9 0.8-8.9 0.8-9.1 0-16.2-3.5-7-3.6-11-10-4-6.5-4-14.9 0-6.2 2.3-11.2 2.4-5.1 6.5-8.7 4.3-3.7 9.9-5.6 5.8-2 12.5-2zm89.7 55.1q-2.5 0-6.2-0.2-3.6-0.3-6.7-0.3-2.8 0-5.5 0.1-2.6 0.1-4.7 0.1-0.2 0-0.2-0.5 0-0.6 0.2-0.6 3.1 0 4.8-0.4 1.6-0.4 2.1-1.7 0.6-1.3 0.6-3.8v-39.9q0-2.5-0.6-3.7-0.5-1.3-2.1-1.7-1.6-0.5-4.7-0.5-0.2 0-0.3-0.6 0.1-0.5 0.3-0.5 2.1 0 4.7 0.2 2.6 0.1 5.4 0.1 2.8 0 6.1-0.2 3.3-0.3 5.6-0.3 9.2 0 15.9 3.5 6.9 3.4 10.7 9.4 3.9 5.9 3.9 13.3 0 6.5-2.4 11.8-2.3 5.1-6.4 8.8-4 3.7-9.4 5.6-5.2 2-11.1 2zm-0.9-1.3q6.9 0 12.2-2.8 5.3-2.9 8.3-8.5 3.1-5.6 3.1-13.7 0-7.5-3-13.5-2.7-6.1-7.9-9.6-5.1-3.7-12.2-3.7-5.2 0-7.5 1.1-2.2 1-2.2 5v38.8q0 3.6 1.8 5.3 1.7 1.6 7.4 1.6zm94.6 1h-36.1q-0.2 0-0.2-0.5 0-0.6 0.2-0.6 3.2 0 4.7-0.4 1.6-0.4 2.1-1.7 0.6-1.3 0.6-3.8v-39.9q0-2.5-0.6-3.7-0.5-1.3-2.1-1.7-1.5-0.5-4.7-0.5-0.2 0-0.2-0.6 0-0.5 0.2-0.5h34.6q0.8 0 0.8 0.8l0.2 10.6q0 0.3-0.5 0.3-0.4 0-0.5-0.3-0.2-4.6-2.8-7-2.5-2.6-6.6-2.6h-5.2q-2.9 0-4.5 0.5-1.4 0.4-2.1 1.7-0.4 1.1-0.4 3.4v39.2q0 2.2 0.4 3.4 0.6 1.2 2 1.6 1.5 0.5 4.4 0.5h6.9q4.1 0 6.8-3 2.9-2.9 3.8-8 0-0.3 0.5-0.1 0.5-0.1 0.5 0.2-0.4 2.3-0.6 5.5-0.2 3.2-0.2 5.9 0 1.3-1.4 1.3zm-4.8-20.1q0-3.8-1.9-5.3-1.8-1.8-6.1-1.8h-13v-1.8h13.2q4.2 0 5.9-1.4 1.8-1.4 1.8-4.6 0-0.2 0.5-0.2 0.5 0 0.5 0.2 0 2.5-0.1 4 0 1.4 0 3 0 1.9 0.1 3.9 0.1 1.8 0.1 4 0 0.2-0.5 0.3-0.5-0.1-0.5-0.3zm42.3 10.7v-42.5l2.1 0.2v42.3q0 4.5 1.5 6.5 1.6 1.8 5.1 1.8 0.3 0 0.2 0.6 0.1 0.5-0.2 0.5-1.7 0-3.5-0.1-1.8-0.1-4-0.1-2.2 0-4.3 0.1-1.9 0.1-3.7 0.1-0.2 0-0.2-0.5 0-0.6 0.2-0.6 3.8 0 5.3-1.8 1.5-2 1.5-6.5zm42.8 2.3l0.7 8.1q0 0.2-0.5 0.3-0.4 0-0.5-0.1l-39.7-48q-3-3.5-5.3-4.8-2.2-1.2-4.3-1.2-0.2 0-0.2-0.6 0-0.5 0.2-0.5 1.6 0 3.1 0.1 1.7 0.1 2.9 0.1 1.6 0 3-0.1 1.4-0.1 2-0.1 1.2 0 1.6 1.1 0.5 0.9 2.5 3.4zm0.7-37.4v45.5l-2-2.7v-42.8q0-4.4-1.6-6.3-1.4-2.1-5-2.1-0.2 0-0.2-0.5 0-0.5 0.2-0.5 1.8 0 3.6 0.2 1.8 0.1 4 0.1 2.1 0 4.1-0.1 2-0.2 3.7-0.2 0.3 0 0.2 0.5 0.1 0.5-0.2 0.5-3.6 0-5.3 2.1-1.5 1.9-1.5 6.3zm44.4-7.8q-5.4 0-8.1 2.8-2.7 2.7-3.9 9.3 0 0.2-0.5 0.2-0.5 0-0.5-0.2 0.2-1.1 0.4-3.1 0.2-2 0.3-4.3 0.3-2.4 0.4-4.6 0.1-2.2 0.1-3.6 0-0.4 0.5-0.4 0.5 0 0.5 0.4 0 0.9 0.9 1.3 0.8 0.3 1.9 0.5 1.1 0.1 1.9 0.1 7.4 0.3 17.3 0.3 6.1 0 9.6-0.1 3.7-0.2 7-0.2 2.9 0 4.5-0.3 1.6-0.5 2-1.9 0.1-0.3 0.5-0.3 0.5 0 0.5 0.3-0.1 1.4-0.3 3.6-0.1 2.2-0.3 4.6 0 2.5-0.2 4.6 0 2 0 3.1 0 0.2-0.5 0.2-0.5 0-0.5-0.2-0.3-6.7-2.8-9.4-2.5-2.7-8.2-2.7-3.6 0-5.5 0.4-1.7 0.2-2.4 1.5-0.5 1.1-0.5 3.7v39.7q0 2.5 0.5 3.8 0.7 1.3 2.4 1.7 1.8 0.4 5.5 0.4 0.2 0 0.1 0.6 0.1 0.5-0.1 0.5-2.3 0-5.1-0.1-2.9-0.1-6.2-0.1-3.2 0-6.1 0.1-2.8 0.1-5.1 0.1-0.2 0-0.3-0.5 0.1-0.6 0.3-0.6 3.5 0 5.3-0.4 1.9-0.4 2.5-1.7 0.7-1.3 0.7-3.8v-39.9q0-2.6-0.7-3.7-0.6-1.2-2.4-1.4-1.8-0.3-5.4-0.3zm75.9 5.6v39.7q0 2.5 0.5 3.8 0.5 1.3 2.1 1.7 1.6 0.4 4.8 0.4 0.2 0 0.1 0.6 0.1 0.5-0.1 0.5-2.1 0-4.7-0.1-2.5-0.1-5.6-0.1-2.9 0-5.5 0.1-2.6 0.1-4.7 0.1-0.2 0-0.3-0.5 0.1-0.6 0.3-0.6 3.2 0 4.8-0.4 1.6-0.4 2.1-1.7 0.6-1.3 0.6-3.8v-39.9q0-2.5-0.6-3.7-0.5-1.3-2.1-1.7-1.6-0.6-4.8-0.6-0.2 0-0.3-0.5 0.1-0.5 0.3-0.5 2.1 0 4.7 0.2 2.6 0.1 5.5 0.1 3.1 0 5.6-0.1 2.7-0.2 4.7-0.2 0.2 0 0.1 0.5 0.1 0.5-0.1 0.5-3.2 0-4.8 0.6-1.5 0.5-2.1 1.8-0.5 1.3-0.5 3.8zm44.4 2.9q0 3.5 1.7 6.1 1.8 2.5 4.6 4.4 2.8 1.9 5.8 3.8 3.2 1.8 6.1 4 3 2 5 4.9 1.9 2.7 1.9 6.9 0 4.1-2.1 7.5-2 3.3-6 5.3-3.9 1.9-9.6 1.9-2.1 0-4.2-0.3-1.9-0.3-4-1-2-0.7-4-1.7-0.4-0.3-0.6-0.6-0.1-0.4-0.1-1.1l-1.1-11.7q-0.1-0.4 0.3-0.4 0.5-0.1 0.6 0.3 0.5 2.6 1.6 5.3 1.2 2.6 2.9 4.8 1.9 2.2 4.4 3.6 2.7 1.4 6.1 1.4 2.6 0 4.9-0.9 2.4-1 3.9-3 1.5-2.3 1.5-6 0-4.2-1.9-7-1.8-2.8-4.6-4.9-2.9-2.1-6-3.9-3-1.8-5.9-3.8-2.8-2.1-4.6-4.7-1.7-2.8-1.7-6.8 0-4.5 2.3-7.5 2.4-3 6-4.5 3.7-1.4 7.7-1.4 2.4 0 5 0.5 2.6 0.4 5.1 1.5 0.7 0.3 0.9 0.7 0.4 0.4 0.4 0.8l0.6 9.8q0 0.4-0.5 0.4-0.4 0-0.5-0.3-0.2-1.7-1.1-3.8-0.7-2.1-2.2-4-1.4-1.9-3.6-3.1-2.3-1.3-5.4-1.3-3.4 0-5.6 1.5-2.1 1.4-3.1 3.6-0.9 2.2-0.9 4.7zm66.7-8.5q-5.4 0-8.1 2.8-2.7 2.7-3.9 9.3 0 0.2-0.5 0.2-0.5 0-0.5-0.2 0.2-1.1 0.4-3.1 0.2-2 0.3-4.3 0.3-2.4 0.4-4.6 0.1-2.2 0.1-3.6 0-0.4 0.5-0.4 0.5 0 0.5 0.4 0 0.9 0.9 1.3 0.8 0.3 1.9 0.5 1.1 0.1 1.9 0.1 7.4 0.3 17.3 0.3 6.1 0 9.6-0.1 3.7-0.2 7-0.2 2.9 0 4.5-0.3 1.6-0.5 2-1.9 0.1-0.3 0.5-0.3 0.5 0 0.5 0.3-0.1 1.4-0.3 3.6-0.1 2.2-0.3 4.6 0 2.5-0.2 4.6 0 2 0 3.1 0 0.2-0.5 0.2-0.5 0-0.5-0.2-0.3-6.7-2.8-9.4-2.5-2.7-8.2-2.7-3.6 0-5.5 0.4-1.7 0.2-2.4 1.5-0.5 1.1-0.5 3.7v39.7q0 2.5 0.5 3.8 0.7 1.3 2.4 1.7 1.8 0.4 5.5 0.4 0.2 0 0.1 0.6 0.1 0.5-0.1 0.5-2.3 0-5.1-0.1-2.9-0.1-6.2-0.1-3.2 0-6.1 0.1-2.8 0.1-5.1 0.1-0.2 0-0.3-0.5 0.1-0.6 0.3-0.6 3.5 0 5.3-0.4 1.9-0.4 2.5-1.7 0.7-1.3 0.7-3.8v-39.9q0-2.6-0.7-3.7-0.6-1.2-2.4-1.4-1.8-0.3-5.4-0.3zm105.5 52.3q-1.4 0-4.7-3.3-3.2-3.4-7.9-9.6-4.6-6.2-10.3-14.8l4.9-1.5q7.3 10.4 12.4 16.7 5.2 6.1 9.1 8.8 3.9 2.6 7.6 2.6 0.2 0 0.2 0.6 0 0.5-0.2 0.5-4.3 0-7.1 0-2.7 0-4 0zm-21.7-54.2q6.9 0 10.5 3.2 3.7 3.1 3.7 8.2 0 4.7-2.7 8.5-2.7 3.7-7.2 5.9-4.4 2.1-9.6 2.1-0.9 0-2 0-1.1-0.2-2-0.2v19.5q0 2.5 0.5 3.8 0.5 1.3 2.1 1.7 1.6 0.4 4.8 0.4 0.2 0 0.2 0.6 0 0.5-0.2 0.5-2.1 0-4.7-0.1-2.4-0.1-5.5-0.1-2.8 0-5.5 0.1-2.6 0.1-4.7 0.1-0.2 0-0.2-0.5 0-0.6 0.2-0.6 3.2 0 4.7-0.4 1.7-0.4 2.2-1.7 0.6-1.3 0.6-3.8v-39.9q0-2.5-0.5-3.7-0.5-1.3-2.2-1.7-1.5-0.6-4.6-0.6-0.3 0-0.3-0.5 0-0.5 0.3-0.5 2 0 4.5 0.2 2.7 0.1 5.5 0.1 2.7 0 6.2-0.3 3.5-0.3 5.9-0.3zm8.4 13.9q0-4.7-1.5-7.4-1.4-2.8-4-4-2.6-1.2-6.2-1.2-3.2 0-4.6 1.2-1.4 1.1-1.4 5v18.1q1.2 0.1 2.7 0.2 1.4 0.1 2.5 0.1 6.9 0 9.7-3 2.8-3.1 2.8-9zm72 16.7l-1.5-1.2 12.9-19.9q2.5-4 1.8-6-0.7-2.2-4.5-2.2-0.2 0-0.3-0.5 0.1-0.5 0.3-0.5 2.3 0 4.5 0.2 2.1 0.1 5.5 0.1 2.2 0 3.5-0.1 1.4-0.2 3.3-0.2 0.1 0 0.1 0.5 0 0.5-0.1 0.5-2.1 0-4.2 1.1-2.2 1-4.2 2.9-1.9 1.9-3.6 4.6zm1.8-3.9l-4.2 4-15.5-22.8q-2.5-3.7-4.7-5.2-2.1-1.4-4.9-1.4-0.3 0-0.3-0.6 0-0.5 0.3-0.5 1.4 0 3 0.2 1.7 0.1 3.1 0.1 2.3 0 4.5 0 2.2-0.1 4.1-0.2 2-0.1 3.4-0.1 0.2 0 0.2 0.5 0 0.6-0.2 0.6-3.3 0-4.2 1-0.8 0.9 0.6 2.9zm-5.4 20.4v-19.8l5.6-0.8v20.6q0 2.5 0.4 3.7 0.6 1.3 2.1 1.8 1.6 0.4 4.8 0.4 0.2 0 0.2 0.5 0 0.5-0.2 0.5-2.1 0-4.6-0.1-2.5 0-5.5 0-2.9 0-5.7 0-2.5 0.1-4.5 0.1-0.3 0-0.4-0.5 0.1-0.5 0.4-0.5 3.1 0 4.7-0.4 1.6-0.5 2.2-1.8 0.5-1.2 0.5-3.7z"/>
		<path class="s0" d="m999.73 253.52q24.46-0.23 48.91 0.11c-6.3 1.25-18.38-0.27-20.56 2.93-2.9-1.3-13.68 0.2-17.29 0.71-7.52 5.15-8.24 9.07-11.7 17.47-0.08-6.93 0.34-14.26 0.64-21.22z"/>
		<path class="s3" d="m1059.59 379.36c2.32-0.45 4.7 0.38 6.25 2.18 1.54 1.8 1.98 4.3 1.16 6.52-0.81 2.21-2.76 3.82-5.09 4.22-3.53 0.56-6.88-1.79-7.51-5.32-0.64-3.52 1.68-6.91 5.19-7.6z"/>
	</g>
</svg>
